<svg width="219" height="55" viewBox="0 0 219 55" fill="none" xmlns="http://www.w3.org/2000/svg">
<path d="M79.7837 49.3281V43.8928L76.0648 49.3281H75.4927V42.6532H76.1602V48.0885L79.879 42.6532H80.4512V49.3281H79.7837Z" fill="#434356"/>
<path d="M84.3387 46.8775C84.8918 47.0872 85.1683 47.4687 85.1683 48.0217C85.1683 48.4159 85.0126 48.7528 84.7011 49.0325C84.3959 49.3059 83.9573 49.4425 83.3852 49.4425C82.4252 49.4425 81.7959 49.0611 81.4971 48.2983L82.0311 47.9836C82.2282 48.5494 82.6795 48.8323 83.3852 48.8323C83.7539 48.8323 84.0368 48.7528 84.2338 48.5939C84.4373 48.4349 84.539 48.2315 84.539 47.9836C84.539 47.7611 84.4563 47.5799 84.291 47.4401C84.1258 47.3002 83.9033 47.2303 83.6236 47.2303H82.9275V46.62H83.4328C83.7062 46.62 83.9192 46.5533 84.0717 46.4198C84.2306 46.2799 84.3101 46.0892 84.3101 45.8476C84.3101 45.6188 84.2179 45.4312 84.0336 45.285C83.8492 45.1325 83.6013 45.0562 83.2898 45.0562C82.6922 45.0562 82.2949 45.2946 82.0979 45.7713L81.5734 45.4662C81.8913 44.786 82.4634 44.4459 83.2898 44.4459C83.792 44.4459 84.1925 44.5794 84.4913 44.8464C84.7901 45.107 84.9395 45.4281 84.9395 45.8095C84.9395 46.299 84.7392 46.655 84.3387 46.8775Z" fill="#434356"/>
<path d="M89.1762 44.5603V45.1706H86.7542V49.3281H86.1249V44.5603H89.1762Z" fill="#434356"/>
<path d="M93.752 48.7274C93.2688 49.2041 92.6776 49.4425 91.9784 49.4425C91.2791 49.4425 90.6847 49.2041 90.1952 48.7274C89.7121 48.2442 89.4705 47.6498 89.4705 46.9442C89.4705 46.2386 89.7121 45.6474 90.1952 45.1706C90.6847 44.6875 91.2791 44.4459 91.9784 44.4459C92.6776 44.4459 93.2688 44.6875 93.752 45.1706C94.2415 45.6474 94.4862 46.2386 94.4862 46.9442C94.4862 47.6498 94.2415 48.2442 93.752 48.7274ZM90.6434 48.2887C91.0057 48.6511 91.4507 48.8323 91.9784 48.8323C92.506 48.8323 92.951 48.6511 93.3133 48.2887C93.6757 47.92 93.8569 47.4718 93.8569 46.9442C93.8569 46.4166 93.6757 45.9716 93.3133 45.6092C92.951 45.2405 92.506 45.0562 91.9784 45.0562C91.4507 45.0562 91.0057 45.2405 90.6434 45.6092C90.281 45.9716 90.0999 46.4166 90.0999 46.9442C90.0999 47.4718 90.281 47.92 90.6434 48.2887Z" fill="#434356"/>
<path d="M98.7859 44.5603V45.1706H97.0982V49.3281H96.4688V45.1706H94.781V44.5603H98.7859Z" fill="#434356"/>
<path d="M103.362 48.7274C102.879 49.2041 102.288 49.4425 101.588 49.4425C100.889 49.4425 100.295 49.2041 99.8053 48.7274C99.3222 48.2442 99.0806 47.6498 99.0806 46.9442C99.0806 46.2386 99.3222 45.6474 99.8053 45.1706C100.295 44.6875 100.889 44.4459 101.588 44.4459C102.288 44.4459 102.879 44.6875 103.362 45.1706C103.852 45.6474 104.096 46.2386 104.096 46.9442C104.096 47.6498 103.852 48.2442 103.362 48.7274ZM100.253 48.2887C100.616 48.6511 101.061 48.8323 101.588 48.8323C102.116 48.8323 102.561 48.6511 102.923 48.2887C103.286 47.92 103.467 47.4718 103.467 46.9442C103.467 46.4166 103.286 45.9716 102.923 45.6092C102.561 45.2405 102.116 45.0562 101.588 45.0562C101.061 45.0562 100.616 45.2405 100.253 45.6092C99.8911 45.9716 99.7099 46.4166 99.7099 46.9442C99.7099 47.4718 99.8911 47.92 100.253 48.2887Z" fill="#434356"/>
<path d="M108.182 46.8775C108.703 47.0682 108.964 47.4401 108.964 47.9931C108.964 48.3809 108.833 48.7019 108.573 48.9562C108.318 49.2041 107.95 49.3281 107.467 49.3281H105.149V44.5603H107.276C107.74 44.5603 108.099 44.6811 108.353 44.9227C108.608 45.1579 108.735 45.463 108.735 45.8381C108.735 46.3149 108.55 46.6613 108.182 46.8775ZM107.276 45.1706H105.779V46.62H107.276C107.829 46.62 108.105 46.3721 108.105 45.8762C108.105 45.6537 108.032 45.4821 107.886 45.3613C107.746 45.2342 107.543 45.1706 107.276 45.1706ZM107.467 48.7178C107.746 48.7178 107.959 48.6511 108.105 48.5176C108.258 48.3841 108.334 48.1966 108.334 47.955C108.334 47.7325 108.258 47.5577 108.105 47.4305C107.959 47.297 107.746 47.2303 107.467 47.2303H105.779V48.7178H107.467Z" fill="#434356"/>
<path d="M113.641 44.5603V49.3281H113.011V45.1706H110.856V47.297C110.856 48.0917 110.704 48.6384 110.399 48.9371C110.1 49.2359 109.687 49.3663 109.159 49.3281V48.7369C109.521 48.775 109.788 48.6892 109.96 48.4794C110.138 48.2697 110.227 47.8755 110.227 47.297V44.5603H113.641Z" fill="#434356"/>
<path d="M117.176 44.4459C117.882 44.4459 118.451 44.697 118.883 45.1992C119.322 45.6951 119.541 46.2831 119.541 46.9633C119.541 47.0332 119.535 47.1317 119.522 47.2589H115.336C115.4 47.742 115.603 48.1266 115.946 48.4127C116.296 48.6924 116.725 48.8323 117.234 48.8323C117.596 48.8323 117.908 48.7592 118.168 48.6129C118.435 48.4604 118.635 48.2633 118.769 48.0217L119.322 48.3459C119.112 48.6829 118.826 48.9499 118.464 49.1469C118.101 49.344 117.688 49.4425 117.224 49.4425C116.474 49.4425 115.864 49.2073 115.393 48.7369C114.923 48.2665 114.688 47.6689 114.688 46.9442C114.688 46.2322 114.92 45.6378 115.384 45.1611C115.848 44.6843 116.445 44.4459 117.176 44.4459ZM117.176 45.0562C116.681 45.0562 116.264 45.2056 115.927 45.5043C115.597 45.7968 115.4 46.1782 115.336 46.6486H118.893C118.829 46.1464 118.635 45.7554 118.311 45.4757C117.987 45.196 117.609 45.0562 117.176 45.0562Z" fill="#434356"/>
<path d="M123.918 44.5603H124.547V49.3281H123.918V47.2494H121.172V49.3281H120.542V44.5603H121.172V46.6391H123.918V44.5603Z" fill="#434356"/>
<path d="M129.349 44.5603H129.883V49.3281H129.254V45.6569L126.412 49.3281H125.878V44.5603H126.508V48.2315L129.349 44.5603Z" fill="#434356"/>
<path d="M133.417 44.4459C134.122 44.4459 134.691 44.697 135.124 45.1992C135.562 45.6951 135.782 46.2831 135.782 46.9633C135.782 47.0332 135.775 47.1317 135.762 47.2589H131.576C131.64 47.742 131.843 48.1266 132.187 48.4127C132.536 48.6924 132.965 48.8323 133.474 48.8323C133.836 48.8323 134.148 48.7592 134.408 48.6129C134.675 48.4604 134.876 48.2633 135.009 48.0217L135.562 48.3459C135.352 48.6829 135.066 48.9499 134.704 49.1469C134.342 49.344 133.928 49.4425 133.464 49.4425C132.714 49.4425 132.104 49.2073 131.634 48.7369C131.163 48.2665 130.928 47.6689 130.928 46.9442C130.928 46.2322 131.16 45.6378 131.624 45.1611C132.088 44.6843 132.686 44.4459 133.417 44.4459ZM133.417 45.0562C132.921 45.0562 132.504 45.2056 132.168 45.5043C131.837 45.7968 131.64 46.1782 131.576 46.6486H135.133C135.07 46.1464 134.876 45.7554 134.551 45.4757C134.227 45.196 133.849 45.0562 133.417 45.0562Z" fill="#434356"/>
<path d="M142.199 46.8775C142.72 47.0682 142.981 47.4401 142.981 47.9931C142.981 48.3809 142.85 48.7019 142.59 48.9562C142.336 49.2041 141.967 49.3281 141.484 49.3281H139.167V44.5603H141.293C141.757 44.5603 142.116 44.6811 142.371 44.9227C142.625 45.1579 142.752 45.463 142.752 45.8381C142.752 46.3149 142.568 46.6613 142.199 46.8775ZM141.293 45.1706H139.796V46.62H141.293C141.846 46.62 142.123 46.3721 142.123 45.8762C142.123 45.6537 142.049 45.4821 141.903 45.3613C141.763 45.2342 141.56 45.1706 141.293 45.1706ZM141.484 48.7178C141.763 48.7178 141.976 48.6511 142.123 48.5176C142.275 48.3841 142.351 48.1966 142.351 47.955C142.351 47.7325 142.275 47.5577 142.123 47.4305C141.976 47.297 141.763 47.2303 141.484 47.2303H139.796V48.7178H141.484Z" fill="#434356"/>
<path d="M145.87 46.3721C146.315 46.3721 146.69 46.5119 146.995 46.7916C147.307 47.065 147.463 47.4178 147.463 47.8501C147.463 48.2824 147.307 48.6384 146.995 48.9181C146.69 49.1914 146.315 49.3281 145.87 49.3281H143.934V44.5603H144.564V46.3721H145.87ZM148.13 44.5603H148.759V49.3281H148.13V44.5603ZM145.87 48.7178C146.137 48.7178 146.363 48.6384 146.547 48.4794C146.738 48.3205 146.833 48.1107 146.833 47.8501C146.833 47.5895 146.738 47.3797 146.547 47.2207C146.363 47.0618 146.137 46.9824 145.87 46.9824H144.564V48.7178H145.87Z" fill="#434356"/>
<path d="M153.131 46.8775C153.653 47.0682 153.913 47.4401 153.913 47.9931C153.913 48.3809 153.783 48.7019 153.522 48.9562C153.268 49.2041 152.899 49.3281 152.416 49.3281H150.099V44.5603H152.225C152.689 44.5603 153.049 44.6811 153.303 44.9227C153.557 45.1579 153.684 45.463 153.684 45.8381C153.684 46.3149 153.5 46.6613 153.131 46.8775ZM152.225 45.1706H150.728V46.62H152.225C152.778 46.62 153.055 46.3721 153.055 45.8762C153.055 45.6537 152.982 45.4821 152.836 45.3613C152.696 45.2342 152.492 45.1706 152.225 45.1706ZM152.416 48.7178C152.696 48.7178 152.909 48.6511 153.055 48.5176C153.208 48.3841 153.284 48.1966 153.284 47.955C153.284 47.7325 153.208 47.5577 153.055 47.4305C152.909 47.297 152.696 47.2303 152.416 47.2303H150.728V48.7178H152.416Z" fill="#434356"/>
<path d="M157.069 44.4459C157.775 44.4459 158.344 44.697 158.776 45.1992C159.215 45.6951 159.434 46.2831 159.434 46.9633C159.434 47.0332 159.428 47.1317 159.415 47.2589H155.229C155.293 47.742 155.496 48.1266 155.839 48.4127C156.189 48.6924 156.618 48.8323 157.127 48.8323C157.489 48.8323 157.801 48.7592 158.061 48.6129C158.328 48.4604 158.528 48.2633 158.662 48.0217L159.215 48.3459C159.005 48.6829 158.719 48.9499 158.357 49.1469C157.994 49.344 157.581 49.4425 157.117 49.4425C156.367 49.4425 155.757 49.2073 155.286 48.7369C154.816 48.2665 154.581 47.6689 154.581 46.9442C154.581 46.2322 154.813 45.6378 155.277 45.1611C155.741 44.6843 156.338 44.4459 157.069 44.4459ZM157.069 45.0562C156.574 45.0562 156.157 45.2056 155.82 45.5043C155.49 45.7968 155.293 46.1782 155.229 46.6486H158.786C158.722 46.1464 158.528 45.7554 158.204 45.4757C157.88 45.196 157.502 45.0562 157.069 45.0562Z" fill="#434356"/>
<path d="M162.657 49.4425C161.939 49.4425 161.341 49.2041 160.864 48.7274C160.388 48.2442 160.149 47.6498 160.149 46.9442C160.149 46.2386 160.388 45.6474 160.864 45.1706C161.341 44.6875 161.939 44.4459 162.657 44.4459C163.128 44.4459 163.55 44.5603 163.925 44.7892C164.3 45.0117 164.574 45.3136 164.745 45.6951L164.231 45.9907C164.103 45.7046 163.897 45.4789 163.611 45.3136C163.331 45.142 163.013 45.0562 162.657 45.0562C162.13 45.0562 161.685 45.2405 161.322 45.6092C160.96 45.9716 160.779 46.4166 160.779 46.9442C160.779 47.4718 160.96 47.92 161.322 48.2887C161.685 48.6511 162.13 48.8323 162.657 48.8323C163.013 48.8323 163.331 48.7496 163.611 48.5843C163.89 48.4127 164.11 48.1838 164.269 47.8978L164.793 48.2029C164.596 48.5843 164.307 48.8863 163.925 49.1088C163.544 49.3313 163.121 49.4425 162.657 49.4425Z" fill="#434356"/>
<path d="M169.646 48.7274C169.162 49.2041 168.571 49.4425 167.872 49.4425C167.173 49.4425 166.578 49.2041 166.089 48.7274C165.606 48.2442 165.364 47.6498 165.364 46.9442C165.364 46.2386 165.606 45.6474 166.089 45.1706C166.578 44.6875 167.173 44.4459 167.872 44.4459C168.571 44.4459 169.162 44.6875 169.646 45.1706C170.135 45.6474 170.38 46.2386 170.38 46.9442C170.38 47.6498 170.135 48.2442 169.646 48.7274ZM166.537 48.2887C166.899 48.6511 167.344 48.8323 167.872 48.8323C168.4 48.8323 168.845 48.6511 169.207 48.2887C169.569 47.92 169.75 47.4718 169.75 46.9442C169.75 46.4166 169.569 45.9716 169.207 45.6092C168.845 45.2405 168.4 45.0562 167.872 45.0562C167.344 45.0562 166.899 45.2405 166.537 45.6092C166.175 45.9716 165.993 46.4166 165.993 46.9442C165.993 47.4718 166.175 47.92 166.537 48.2887Z" fill="#434356"/>
<path d="M175.285 49.3281H174.446L172.062 47.03V49.3281H171.433V44.5603H172.062V46.6677L174.332 44.5603H175.19L172.73 46.8489L175.285 49.3281Z" fill="#434356"/>
<path d="M181.561 46.8775C182.082 47.0682 182.343 47.4401 182.343 47.9931C182.343 48.3809 182.213 48.7019 181.952 48.9562C181.698 49.2041 181.329 49.3281 180.846 49.3281H178.529V44.5603H180.655C181.119 44.5603 181.478 44.6811 181.733 44.9227C181.987 45.1579 182.114 45.463 182.114 45.8381C182.114 46.3149 181.93 46.6613 181.561 46.8775ZM180.655 45.1706H179.158V46.62H180.655C181.208 46.62 181.485 46.3721 181.485 45.8762C181.485 45.6537 181.412 45.4821 181.265 45.3613C181.126 45.2342 180.922 45.1706 180.655 45.1706ZM180.846 48.7178C181.126 48.7178 181.339 48.6511 181.485 48.5176C181.637 48.3841 181.714 48.1966 181.714 47.955C181.714 47.7325 181.637 47.5577 181.485 47.4305C181.339 47.297 181.126 47.2303 180.846 47.2303H179.158V48.7178H180.846Z" fill="#434356"/>
<path d="M191.879 42.6532V49.3281H191.211V43.664L188.875 47.5736H188.78L186.443 43.664V49.3281H185.776V42.6532H186.605L188.827 46.3721L191.049 42.6532H191.879Z" fill="#434356"/>
<path d="M197.302 48.7274C196.819 49.2041 196.228 49.4425 195.529 49.4425C194.83 49.4425 194.235 49.2041 193.746 48.7274C193.263 48.2442 193.021 47.6498 193.021 46.9442C193.021 46.2386 193.263 45.6474 193.746 45.1706C194.235 44.6875 194.83 44.4459 195.529 44.4459C196.228 44.4459 196.819 44.6875 197.302 45.1706C197.792 45.6474 198.037 46.2386 198.037 46.9442C198.037 47.6498 197.792 48.2442 197.302 48.7274ZM194.194 48.2887C194.556 48.6511 195.001 48.8323 195.529 48.8323C196.056 48.8323 196.501 48.6511 196.864 48.2887C197.226 47.92 197.407 47.4718 197.407 46.9442C197.407 46.4166 197.226 45.9716 196.864 45.6092C196.501 45.2405 196.056 45.0562 195.529 45.0562C195.001 45.0562 194.556 45.2405 194.194 45.6092C193.832 45.9716 193.65 46.4166 193.65 46.9442C193.65 47.4718 193.832 47.92 194.194 48.2887Z" fill="#434356"/>
<path d="M201.312 49.4425C200.593 49.4425 199.996 49.2041 199.519 48.7274C199.042 48.2442 198.804 47.6498 198.804 46.9442C198.804 46.2386 199.042 45.6474 199.519 45.1706C199.996 44.6875 200.593 44.4459 201.312 44.4459C201.782 44.4459 202.205 44.5603 202.58 44.7892C202.955 45.0117 203.228 45.3136 203.4 45.6951L202.885 45.9907C202.758 45.7046 202.551 45.4789 202.265 45.3136C201.986 45.142 201.668 45.0562 201.312 45.0562C200.784 45.0562 200.339 45.2405 199.977 45.6092C199.614 45.9716 199.433 46.4166 199.433 46.9442C199.433 47.4718 199.614 47.92 199.977 48.2887C200.339 48.6511 200.784 48.8323 201.312 48.8323C201.668 48.8323 201.986 48.7496 202.265 48.5843C202.545 48.4127 202.764 48.1838 202.923 47.8978L203.448 48.2029C203.251 48.5843 202.961 48.8863 202.58 49.1088C202.198 49.3313 201.776 49.4425 201.312 49.4425Z" fill="#434356"/>
<path d="M208.204 49.3281H207.364L204.981 47.03V49.3281H204.351V44.5603H204.981V46.6677L207.25 44.5603H208.108L205.648 46.8489L208.204 49.3281Z" fill="#434356"/>
<path d="M212.095 46.8775C212.617 47.0682 212.877 47.4401 212.877 47.9931C212.877 48.3809 212.747 48.7019 212.486 48.9562C212.232 49.2041 211.863 49.3281 211.38 49.3281H209.063V44.5603H211.19C211.654 44.5603 212.013 44.6811 212.267 44.9227C212.521 45.1579 212.648 45.463 212.648 45.8381C212.648 46.3149 212.464 46.6613 212.095 46.8775ZM211.19 45.1706H209.692V46.62H211.19C211.743 46.62 212.019 46.3721 212.019 45.8762C212.019 45.6537 211.946 45.4821 211.8 45.3613C211.66 45.2342 211.457 45.1706 211.19 45.1706ZM211.38 48.7178C211.66 48.7178 211.873 48.6511 212.019 48.5176C212.172 48.3841 212.248 48.1966 212.248 47.955C212.248 47.7325 212.172 47.5577 212.019 47.4305C211.873 47.297 211.66 47.2303 211.38 47.2303H209.692V48.7178H211.38Z" fill="#434356"/>
<path d="M216.034 44.4459C216.739 44.4459 217.308 44.697 217.74 45.1992C218.179 45.6951 218.398 46.2831 218.398 46.9633C218.398 47.0332 218.392 47.1317 218.379 47.2589H214.193C214.257 47.742 214.46 48.1266 214.804 48.4127C215.153 48.6924 215.582 48.8323 216.091 48.8323C216.453 48.8323 216.765 48.7592 217.025 48.6129C217.292 48.4604 217.493 48.2633 217.626 48.0217L218.179 48.3459C217.969 48.6829 217.683 48.9499 217.321 49.1469C216.959 49.344 216.545 49.4425 216.081 49.4425C215.331 49.4425 214.721 49.2073 214.25 48.7369C213.78 48.2665 213.545 47.6689 213.545 46.9442C213.545 46.2322 213.777 45.6378 214.241 45.1611C214.705 44.6843 215.303 44.4459 216.034 44.4459ZM216.034 45.0562C215.538 45.0562 215.121 45.2056 214.784 45.5043C214.454 45.7968 214.257 46.1782 214.193 46.6486H217.75C217.686 46.1464 217.493 45.7554 217.168 45.4757C216.844 45.196 216.466 45.0562 216.034 45.0562Z" fill="#434356"/>
<path d="M87.1007 24.6405C88.8552 25.6512 89.7325 27.1769 89.7325 29.2176C89.7325 30.9149 89.1317 32.3071 87.9303 33.3941C86.7288 34.4812 85.2508 35.0247 83.4962 35.0247H75V15H82.8955C84.6119 15 86.0517 15.534 87.2151 16.602C88.3975 17.6509 88.9887 18.9954 88.9887 20.6355C88.9887 22.2947 88.3594 23.6297 87.1007 24.6405ZM82.8955 18.6903H78.9477V23.0957H82.8955C83.5057 23.0957 84.0111 22.8859 84.4116 22.4664C84.8312 22.0468 85.041 21.5223 85.041 20.893C85.041 20.2636 84.8407 19.7392 84.4402 19.3196C84.0397 18.9001 83.5248 18.6903 82.8955 18.6903ZM83.4962 31.3345C84.1637 31.3345 84.7168 31.1151 85.1554 30.6765C85.594 30.2188 85.8134 29.6467 85.8134 28.9601C85.8134 28.2926 85.594 27.7395 85.1554 27.3009C84.7168 26.8432 84.1637 26.6143 83.4962 26.6143H78.9477V31.3345H83.4962Z" fill="#46505E"/>
<path d="M95.4905 29.3892C95.9863 31.1819 97.3308 32.0782 99.524 32.0782C100.935 32.0782 102.003 31.6015 102.728 30.6479L105.703 32.3643C104.292 34.4049 102.213 35.4252 99.4668 35.4252C97.102 35.4252 95.2044 34.7101 93.7741 33.2797C92.3437 31.8494 91.6286 30.0472 91.6286 27.873C91.6286 25.718 92.3342 23.9253 93.7455 22.495C95.1567 21.0456 96.9685 20.3209 99.1807 20.3209C101.279 20.3209 103.005 21.0456 104.359 22.495C105.732 23.9444 106.418 25.7371 106.418 27.873C106.418 28.3498 106.371 28.8552 106.275 29.3892H95.4905ZM95.4333 26.5285H102.728C102.518 25.5559 102.08 24.8312 101.412 24.3544C100.764 23.8776 100.02 23.6392 99.1807 23.6392C98.1891 23.6392 97.369 23.8967 96.7206 24.4116C96.0721 24.9075 95.643 25.6131 95.4333 26.5285Z" fill="#46505E"/>
<path d="M117.319 20.3209C119.245 20.3209 120.885 21.0551 122.239 22.5236C123.612 23.973 124.299 25.7561 124.299 27.873C124.299 29.9899 123.612 31.7826 122.239 33.2511C120.885 34.7005 119.245 35.4252 117.319 35.4252C115.317 35.4252 113.772 34.7291 112.685 33.3369V40.7461H108.994V20.7214H112.685V22.4091C113.772 21.017 115.317 20.3209 117.319 20.3209ZM113.8 30.7909C114.544 31.5347 115.488 31.9066 116.632 31.9066C117.777 31.9066 118.721 31.5347 119.465 30.7909C120.227 30.0281 120.609 29.0555 120.609 27.873C120.609 26.6906 120.227 25.7275 119.465 24.9838C118.721 24.2209 117.777 23.8395 116.632 23.8395C115.488 23.8395 114.544 24.2209 113.8 24.9838C113.057 25.7275 112.685 26.6906 112.685 27.873C112.685 29.0555 113.057 30.0281 113.8 30.7909Z" fill="#46505E"/>
<path d="M133.71 35.4252C131.555 35.4252 129.753 34.7005 128.303 33.2511C126.873 31.8017 126.158 30.009 126.158 27.873C126.158 25.7371 126.873 23.9444 128.303 22.495C129.753 21.0456 131.555 20.3209 133.71 20.3209C135.102 20.3209 136.37 20.6546 137.515 21.3221C138.659 21.9896 139.527 22.8859 140.118 24.0111L136.943 25.8706C136.656 25.2794 136.218 24.8121 135.627 24.4688C135.055 24.1256 134.406 23.9539 133.681 23.9539C132.575 23.9539 131.66 24.3258 130.935 25.0696C130.21 25.7943 129.848 26.7288 129.848 27.873C129.848 28.9982 130.21 29.9327 130.935 30.6765C131.66 31.4012 132.575 31.7636 133.681 31.7636C134.425 31.7636 135.083 31.6015 135.655 31.2772C136.246 30.934 136.685 30.4667 136.971 29.8755L140.175 31.7063C139.546 32.8315 138.659 33.7374 137.515 34.424C136.37 35.0915 135.102 35.4252 133.71 35.4252Z" fill="#46505E"/>
<path d="M152.774 20.7214H156.464V35.0247H152.774V33.3369C151.668 34.7291 150.114 35.4252 148.111 35.4252C146.204 35.4252 144.564 34.7005 143.191 33.2511C141.837 31.7826 141.16 29.9899 141.16 27.873C141.16 25.7561 141.837 23.973 143.191 22.5236C144.564 21.0551 146.204 20.3209 148.111 20.3209C150.114 20.3209 151.668 21.017 152.774 22.4091V20.7214ZM145.966 30.7909C146.709 31.5347 147.653 31.9066 148.798 31.9066C149.942 31.9066 150.886 31.5347 151.63 30.7909C152.393 30.0281 152.774 29.0555 152.774 27.873C152.774 26.6906 152.393 25.7275 151.63 24.9838C150.886 24.2209 149.942 23.8395 148.798 23.8395C147.653 23.8395 146.709 24.2209 145.966 24.9838C145.222 25.7275 144.85 26.6906 144.85 27.873C144.85 29.0555 145.222 30.0281 145.966 30.7909Z" fill="#46505E"/>
<path d="M172.083 20.7214V35.0247H168.393V24.2686H164.445V29.0459C164.445 33.4704 162.433 35.4634 158.409 35.0247V31.5633C159.172 31.754 159.753 31.6301 160.154 31.1914C160.554 30.7337 160.755 29.9518 160.755 28.8457V20.7214H172.083Z" fill="#46505E"/>
<path d="M181.892 25.2984C183.513 25.2984 184.819 25.7466 185.811 26.6429C186.803 27.5202 187.299 28.6931 187.299 30.1616C187.299 31.6301 186.803 32.8125 185.811 33.7088C184.819 34.5861 183.513 35.0247 181.892 35.0247H175.427V20.7214H179.117V25.2984H181.892ZM181.921 31.7636C182.436 31.7636 182.855 31.6205 183.179 31.3345C183.523 31.0293 183.694 30.6384 183.694 30.1616C183.694 29.6848 183.523 29.2938 183.179 28.9887C182.855 28.6836 182.436 28.531 181.921 28.531H179.117V31.7636H181.921Z" fill="#46505E"/>
<path d="M32.2929 54.472C31.9509 54.472 31.6089 54.434 31.2669 54.358C29.4429 54.016 28.5309 52.401 28.5309 49.513C28.5309 44.839 30.8869 36.878 35.5989 25.63C37.4229 21.374 38.772 17.232 39.646 13.204C39.988 11.646 40.1589 10.411 40.1589 9.49899C40.1589 8.54899 40.1209 7.80799 40.0449 7.27599C39.8549 5.60399 39.2279 4.44499 38.1639 3.79899C36.2639 2.77299 34.1359 2.25999 31.7799 2.25999C29.3099 2.25999 26.7069 2.86799 23.9709 4.08399C21.2349 5.29999 18.6509 6.78199 16.2189 8.52999C13.8249 10.278 11.6399 12.368 9.66395 14.8C7.68795 17.194 6.20595 19.721 5.21795 22.381C4.26795 25.003 3.79295 27.378 3.79295 29.506C3.79295 30.38 3.86895 31.216 4.02095 32.014C4.62895 34.636 5.76895 36.593 7.44095 37.885C9.11295 39.177 11.0889 39.823 13.3689 39.823C16.5609 39.823 19.5439 38.417 22.3179 35.605C25.1299 32.793 26.5359 29.81 26.5359 26.656C26.5359 24.946 26.1939 23.711 25.5099 22.951C24.8259 22.191 24.1229 21.811 23.4009 21.811C22.6789 21.811 21.9569 21.925 21.2349 22.153C20.5129 22.343 20.1519 22.324 20.1519 22.096C20.1519 21.83 20.5889 21.507 21.4629 21.127C22.3369 20.709 23.2489 20.5 24.1989 20.5C25.1489 20.5 26.0229 20.785 26.8209 21.355C28.3029 22.495 29.0439 24.224 29.0439 26.542C29.0439 28.86 28.1509 31.197 26.3649 33.553C24.6169 35.871 22.4509 37.752 19.8669 39.196C17.2829 40.602 14.7179 41.305 12.1719 41.305C9.66395 41.305 7.32695 40.393 5.16095 38.569C2.99495 36.707 1.55095 34.218 0.828945 31.102C0.638945 30.19 0.543945 29.221 0.543945 28.195C0.543945 25.801 1.13295 23.198 2.31095 20.386C3.48895 17.574 5.17995 14.971 7.38395 12.577C9.62595 10.145 12.0389 8.13099 14.6229 6.53499C17.2069 4.90099 19.9429 3.55199 22.8309 2.48799C25.7189 1.38599 28.4359 0.834991 30.9819 0.834991C33.5279 0.834991 35.8459 1.23399 37.9359 2.03199C41.6219 3.62799 43.465 7.00999 43.465 12.178C43.465 15.978 42.097 20.69 39.361 26.314C37.6509 29.81 36.1309 33.572 34.8009 37.6C32.8249 43.566 31.8369 47.708 31.8369 50.026C31.8369 51.774 32.4259 52.648 33.6039 52.648C35.9599 52.648 40.0829 49.589 45.9729 43.471C50.115 39.177 53.3639 34.465 55.7199 29.335C57.2399 26.067 57.9999 23.065 57.9999 20.329C57.9999 18.885 57.8859 17.878 57.6579 17.308C57.4299 16.7 57.2779 16.32 57.202 16.168C57.1259 15.978 56.9739 15.826 56.7459 15.712C56.5179 15.56 56.3659 15.484 56.2899 15.484C55.7579 15.332 55.2069 15.218 54.6369 15.142C54.0669 15.028 53.725 14.762 53.611 14.344C53.535 13.926 53.7439 13.679 54.2379 13.603L55.3209 13.717C57.0689 14.211 58.589 15.446 59.8809 17.422C60.6029 18.524 60.964 19.854 60.964 21.412C60.964 22.932 60.6029 24.737 59.8809 26.827C58.1329 31.463 55.4349 36.042 51.7869 40.564C48.1389 45.048 44.5289 48.487 40.9569 50.881C37.4229 53.275 34.5349 54.472 32.2929 54.472Z" fill="url(#paint0_linear)"/>
<defs>
<linearGradient id="paint0_linear" x1="2.23571" y1="36.3514" x2="55.9042" y2="36.0289" gradientUnits="userSpaceOnUse">
<stop stop-color="#EE0979"/>
<stop offset="1" stop-color="#FF6A00"/>
</linearGradient>
</defs>
</svg>
