<svg width="24" height="24" viewBox="0 0 24 24" fill="none" xmlns="http://www.w3.org/2000/svg">
<g clip-path="url(#clip0)">
<path d="M11.9998 23.9039H11.9951C10.1226 23.9031 8.26611 23.4611 6.60242 22.6225L1.474 23.7891C1.16107 23.8601 0.833313 23.7662 0.60553 23.54C0.377747 23.3139 0.281616 22.9869 0.350464 22.6734L1.46173 17.6223C0.507019 15.8591 0.00292969 13.9281 0.000183105 12.0134C0 12.0068 0 12.0002 0 11.9938C0.00128174 8.82074 1.2561 5.83246 3.53302 3.57953C5.80481 1.33173 8.81158 0.09375 11.9996 0.09375C15.1948 0.0950317 18.1968 1.33411 20.4536 3.58246C22.7417 5.86212 24.0011 8.85278 24 12.0033C23.9991 14.3842 23.2852 16.6853 21.9355 18.6575C21.6431 19.0849 21.0597 19.1942 20.6323 18.9018C20.2051 18.6094 20.0956 18.026 20.3881 17.5986C21.5235 15.9393 22.1241 14.0043 22.125 12.0026C22.1259 9.35431 21.0624 6.83569 19.1303 4.91071C17.2273 3.01465 14.6948 1.96985 11.9993 1.96875C6.42499 1.96875 1.88672 6.45667 1.875 11.9769C1.875 11.983 1.87518 11.9888 1.87518 11.9947C1.87445 13.7034 2.3551 15.436 3.26495 17.005C3.38269 17.2081 3.42004 17.4478 3.36951 17.6768L2.49921 21.6328L6.52295 20.7175C6.74506 20.6671 6.97797 20.6992 7.17828 20.8077C8.64844 21.6059 10.3141 22.0281 11.9954 22.0289H11.9996C13.8279 22.0289 15.6235 21.5345 17.192 20.5994C17.6365 20.334 18.212 20.4796 18.4772 20.9244C18.7423 21.3691 18.5969 21.9445 18.1522 22.2098C16.2935 23.3179 14.166 23.9039 11.9996 23.9039H11.9998ZM9.35211 7.229C9.14648 6.77344 8.93005 6.75787 8.7345 6.75H8.20844C8.02533 6.75 7.72797 6.81848 7.47656 7.09222C7.22498 7.36597 6.51581 8.02771 6.51581 9.37372C6.51581 10.7197 7.49945 12.0205 7.6366 12.2032C7.77393 12.3856 9.53558 15.236 12.3254 16.3326C14.644 17.244 15.1159 17.0627 15.6191 17.0169C16.1224 16.9715 17.2432 16.3553 17.4717 15.7165C17.7006 15.0778 17.7006 14.5303 17.632 14.4159C17.5635 14.302 17.3804 14.2335 17.1059 14.0967C16.8312 13.96 15.486 13.2867 15.2344 13.1955C14.9828 13.1043 14.7999 13.0587 14.6168 13.3326C14.4337 13.6062 13.8946 14.2388 13.7344 14.4212C13.5743 14.6041 13.4141 14.6268 13.1396 14.4901C12.8652 14.3527 11.9901 14.0588 10.9415 13.127C10.1254 12.4017 9.5592 11.4771 9.39899 11.2031C9.23877 10.9296 9.38177 10.7812 9.51947 10.6448C9.6427 10.5223 9.80951 10.3548 9.94684 10.1951C10.0838 10.0355 10.123 9.92139 10.2144 9.73883C10.3059 9.55627 10.2601 9.39661 10.1917 9.25964C10.123 9.12286 9.59601 7.7699 9.35193 7.229" fill="white"/>
</g>
<defs>
<clipPath id="clip0">
<rect width="24" height="24" fill="white"/>
</clipPath>
</defs>
</svg>
